<?xml version="1.0" encoding="UTF-8"?>
<svg version="1.1" xmlns="http://www.w3.org/2000/svg" width="1080" height="1080">
<path d="M0 0 C1.08933838 0.00563965 2.17867676 0.0112793 3.30102539 0.01708984 C35.84735123 0.5022465 65.48462626 14.17193033 88.18774414 37.21899414 C93.85727432 43.15535844 98.59785455 49.23908341 102.8125 56.3125 C103.18955078 56.93672852 103.56660156 57.56095703 103.95507812 58.20410156 C114.83874286 76.48399646 119.82751099 96.42748172 120.4375 117.625 C120.49224487 119.34686523 120.49224487 119.34686523 120.5480957 121.10351562 C121.67631231 160.44049177 122.71589755 201.39604701 95.8125 233.3125 C95.17957031 234.10269531 94.54664063 234.89289063 93.89453125 235.70703125 C77.70093102 254.99959437 54.47489786 264.05861229 30.625 269.8125 C18.8891649 272.67428536 8.82201618 277.18088405 -1.8125 282.875 C-2.70324219 283.34631348 -3.59398437 283.81762695 -4.51171875 284.30322266 C-5.34574219 284.76132324 -6.17976562 285.21942383 -7.0390625 285.69140625 C-8.16562256 286.30350952 -8.16562256 286.30350952 -9.31494141 286.92797852 C-11.6357297 288.64390947 -12.18399089 289.58998326 -13.1875 292.3125 C-13.36330704 295.10925599 -13.42993504 297.80284794 -13.39868164 300.59765625 C-13.39671028 301.84710526 -13.39671028 301.84710526 -13.3946991 303.12179565 C-13.38821232 305.87297966 -13.36778128 308.62388493 -13.34765625 311.375 C-13.34138491 313.28783873 -13.33614513 315.2006811 -13.33189392 317.11352539 C-13.31859054 322.14918977 -13.29415828 327.18473289 -13.26654053 332.22033691 C-13.22342501 340.28055145 -13.19370187 348.34079854 -13.1704998 356.40109253 C-13.16027464 359.21739199 -13.14322388 362.03359251 -13.12550354 364.84985352 C-13.11867526 366.57568269 -13.11206653 368.30151276 -13.10571289 370.02734375 C-13.09897552 370.81084198 -13.09223816 371.59434021 -13.08529663 372.40158081 C-13.07799932 375.88417025 -13.25259095 378.96276152 -14.1875 382.3125 C-18.68984373 382.36194705 -23.1920293 382.39824161 -27.69458008 382.42236328 C-29.22618361 382.43241935 -30.75776795 382.446066 -32.28930664 382.46337891 C-34.49109636 382.48764498 -36.69263219 382.49898688 -38.89453125 382.5078125 C-39.57900833 382.51813507 -40.26348541 382.52845764 -40.96870422 382.53909302 C-44.61811661 382.53995382 -46.05898502 382.39817666 -49.1875 380.3125 C-49.56765819 378.24045193 -49.56765819 378.24045193 -49.57505417 375.62446785 C-49.58512741 374.6296018 -49.59520065 373.63473576 -49.60557914 372.60972226 C-49.60141368 371.50859722 -49.59724823 370.40747219 -49.59295654 369.27297974 C-49.60030894 368.10931912 -49.60766133 366.94565851 -49.61523652 365.74673545 C-49.63265758 362.50612535 -49.63657372 359.26581517 -49.6348989 356.02516866 C-49.63632847 352.53326536 -49.65496193 349.04144959 -49.67149353 345.54959106 C-49.70118829 338.69977099 -49.71490605 331.850006 -49.72339597 325.00013043 C-49.73392485 317.01148332 -49.76045776 309.02291366 -49.78774002 301.03430913 C-49.8359653 286.76068411 -49.8700269 272.4870603 -49.89599609 258.21337891 C-49.92115312 244.39498103 -49.95544148 230.57664844 -50.00048828 216.75830078 C-50.00325251 215.90987957 -50.00601674 215.06145835 -50.00886473 214.1873274 C-50.01162709 213.34031581 -50.01438945 212.49330422 -50.01723552 211.62062562 C-50.02279847 209.91478865 -50.02835879 208.20895168 -50.03391647 206.5031147 C-50.03666031 205.6616466 -50.03940415 204.82017851 -50.04223113 203.95321137 C-50.0849106 190.75501948 -50.11949982 177.55680478 -50.15313159 164.35858718 C-50.1653571 159.59242977 -50.17866971 154.82627686 -50.19277182 150.06012465 C-50.21513543 142.4822888 -50.23390573 134.90446154 -50.24571076 127.32660128 C-50.25115226 123.86899179 -50.25810772 120.41140646 -50.26970482 116.95381165 C-50.31595253 102.02852856 -50.08733125 87.21279023 -49.1875 72.3125 C-37.3075 72.3125 -25.4275 72.3125 -13.1875 72.3125 C-13.16456294 89.95568361 -13.14630064 107.59885369 -13.13568783 125.24204826 C-13.1306202 133.44164455 -13.12374238 141.64123056 -13.11206055 149.84082031 C-13.05455156 191.01097157 -13.27653074 232.15072159 -14.1875 273.3125 C-10.12306589 271.37903862 -6.06130351 269.44002763 -2 267.5 C-0.84951172 266.95279297 0.30097656 266.40558594 1.48632812 265.84179688 C2.59814453 265.31005859 3.70996094 264.77832031 4.85546875 264.23046875 C5.87664795 263.74344482 6.89782715 263.2564209 7.94995117 262.75463867 C8.89459229 262.27873291 9.8392334 261.80282715 10.8125 261.3125 C11.74717952 260.91039653 12.68185904 260.50829306 13.64486217 260.09400463 C16.15333285 258.41884714 16.15333285 258.41884714 16.44335651 255.03852558 C16.4717676 253.65612521 16.47237512 252.27299541 16.45173645 250.89045715 C16.46009213 250.12835314 16.4684478 249.36624913 16.47705668 248.58105105 C16.49905814 246.01947489 16.48535873 243.4593226 16.47192383 240.89770508 C16.480373 239.06476244 16.49101523 237.23182879 16.50369263 235.39891052 C16.53191749 230.41565158 16.52935351 225.43282191 16.52139878 220.449507 C16.51828065 215.24440505 16.5432877 210.0394415 16.56535339 204.83439636 C16.60285667 194.97466642 16.6149451 185.11507442 16.6179778 175.2552802 C16.62266182 164.03165736 16.65556403 152.8081733 16.69087565 141.58461154 C16.76288955 118.49388948 16.7956142 95.40333272 16.8125 72.3125 C29.0225 72.3125 41.2325 72.3125 53.8125 72.3125 C53.8125 130.3925 53.8125 188.4725 53.8125 248.3125 C67.8747856 240.10950007 76.37532484 233.05843809 81.26953125 217.515625 C82.88883433 210.94521539 82.96662622 204.61599579 82.97363281 197.88549805 C82.97859772 196.7415004 82.98356262 195.59750275 82.98867798 194.4188385 C83.00326974 190.63729241 83.01009891 186.85578836 83.015625 183.07421875 C83.02138166 180.43309021 83.02713933 177.79196167 83.03289795 175.15083313 C83.04246135 170.31629879 83.04836202 165.48177343 83.0513947 160.6472308 C83.05585711 153.57538301 83.07332322 146.50373026 83.1023953 139.43194169 C83.12417835 133.93860296 83.13410793 128.44531838 83.13543582 122.95193702 C83.13647316 119.68454828 83.14364624 116.41738212 83.16025543 113.15003014 C83.28947352 85.76118604 81.01037813 59.29268948 61.078125 38.546875 C60.33046875 37.80953125 59.5828125 37.0721875 58.8125 36.3125 C58.12671875 35.61640625 57.4409375 34.9203125 56.734375 34.203125 C40.22998924 18.43226749 18.65984546 12.60231888 -3.62109375 12.99609375 C-15.20444209 13.46892385 -25.96029644 16.88777424 -36.1875 22.3125 C-37.00347656 22.73015625 -37.81945312 23.1478125 -38.66015625 23.578125 C-56.18453149 33.24291515 -69.88031014 50.45729266 -75.54296875 69.6171875 C-78.36078279 80.12498463 -79.33669514 90.13104379 -79.32794189 100.95533752 C-79.33091302 102.11131831 -79.33388414 103.26729909 -79.3369453 104.45830959 C-79.34409212 107.64933123 -79.34680199 110.84031994 -79.34754276 114.03134835 C-79.34940229 117.48006734 -79.3569541 120.92877488 -79.36367798 124.37748718 C-79.37722563 131.91083661 -79.38328049 139.44418068 -79.38768864 146.97754025 C-79.39045721 151.68740466 -79.39469568 156.39726703 -79.39919281 161.10713005 C-79.41138101 174.16454343 -79.42168108 187.22195518 -79.4250679 200.27937412 C-79.42528747 201.11412132 -79.42550703 201.94886852 -79.42573325 202.80891108 C-79.42595153 203.64557962 -79.42616981 204.48224816 -79.4263947 205.34427029 C-79.42683816 207.03949074 -79.42728472 208.73471119 -79.42773438 210.42993164 C-79.42806652 211.69124553 -79.42806652 211.69124553 -79.42840537 212.97804051 C-79.43235042 226.59239444 -79.44979749 240.20669476 -79.4730939 253.821028 C-79.49685563 267.82107946 -79.50927195 281.82110406 -79.51043582 295.82117599 C-79.51134989 303.67262345 -79.51703444 311.52400104 -79.53525543 319.37542915 C-79.55072168 326.0630803 -79.55573868 332.75063997 -79.54751733 339.43830562 C-79.54363366 342.84480305 -79.5460885 346.2509682 -79.55857468 349.65746689 C-79.6567125 378.11200167 -75.972842 401.17426594 -55.1875 422.3125 C-54.50042969 423.01246094 -53.81335938 423.71242188 -53.10546875 424.43359375 C-37.74407108 439.05399635 -16.81964915 445.76126407 4.11035156 445.67895508 C19.07391212 445.25998863 31.94702931 440.73401269 44.8125 433.3125 C45.67359375 432.82910156 46.5346875 432.34570312 47.421875 431.84765625 C64.48801058 421.4082648 75.66213192 403.27758211 80.34423828 384.13896179 C81.71998785 377.69242914 82.24083869 371.42823476 82.44140625 364.84765625 C82.48028458 363.73713394 82.5191629 362.62661163 82.55921936 361.48243713 C82.82358156 352.85737575 82.83539253 344.24266082 82.78763962 335.6152153 C82.7669121 331.2232002 82.76764772 326.83110517 82.76750755 322.43904686 C82.76473823 318.68825263 82.74289435 314.93910742 82.68579102 311.1887207 C82.63043032 307.47506515 82.62416734 303.76412844 82.65048409 300.05018806 C82.65170623 298.65919324 82.63558466 297.26805509 82.60056877 295.87750053 C82.34502419 285.2122551 82.34502419 285.2122551 85.96130371 280.53071594 C88.47689178 278.23865291 91.02330257 276.25760929 93.8125 274.3125 C95.2886561 273.14798843 96.76092137 271.97849944 98.2265625 270.80078125 C99.62680122 269.73768488 101.03040688 268.67900726 102.4375 267.625 C103.48550781 266.83125977 103.48550781 266.83125977 104.5546875 266.02148438 C105.94298844 264.97126042 107.33387881 263.92444926 108.72753906 262.88134766 C110.17479011 261.79235055 111.61371415 260.69223342 113.04589844 259.58349609 C113.76036133 259.03387207 114.47482422 258.48424805 115.2109375 257.91796875 C115.85466309 257.4180542 116.49838867 256.91813965 117.16162109 256.40307617 C118.8125 255.3125 118.8125 255.3125 120.8125 255.3125 C120.85916059 266.47538405 120.89453855 277.6382443 120.91612434 288.80120659 C120.92649253 293.98648436 120.94052193 299.17169464 120.96337891 304.35693359 C120.98535891 309.37552667 120.99712074 314.39405547 121.00225449 319.41269302 C121.00590567 321.31251154 121.01303301 323.21232717 121.02396011 325.11211777 C121.10874945 340.48698638 120.81206551 356.10672728 116.5625 371 C116.34489014 371.78415283 116.12728027 372.56830566 115.90307617 373.3762207 C110.15995055 393.44558235 100.67905319 409.69490823 85.8125 424.3125 C84.99007812 425.13363281 84.16765625 425.95476562 83.3203125 426.80078125 C70.25221125 439.20476588 53.47329315 447.94569171 36.5 453.6875 C35.79584961 453.92621826 35.09169922 454.16493652 34.36621094 454.41088867 C23.8234416 457.79264705 13.60301292 458.67482311 2.5625 458.625 C1.27778809 458.62008545 -0.00692383 458.6151709 -1.33056641 458.61010742 C-10.33333578 458.49875768 -18.51968887 457.89307282 -27.1875 455.3125 C-28.39535156 454.9721875 -29.60320312 454.631875 -30.84765625 454.28125 C-49.97798847 448.42542959 -67.83783585 438.25828287 -82.1875 424.3125 C-83.00734375 423.56613281 -83.8271875 422.81976562 -84.671875 422.05078125 C-107.34192436 400.75360755 -115.24786336 370.10330337 -116.51895142 339.90148926 C-116.7382633 332.69077492 -116.803257 325.47911234 -116.86328125 318.265625 C-116.88648718 316.20315013 -116.91165416 314.14070473 -116.93690497 312.07825398 C-117.36802276 276.50319481 -117.37507406 240.92269846 -117.37261307 205.34556246 C-117.37296173 197.89249903 -117.38468305 190.4394816 -117.3985464 182.98643279 C-117.41168493 175.65155425 -117.41698471 168.31669622 -117.41634732 160.98180604 C-117.41609624 156.66393133 -117.41873258 152.3461141 -117.42952538 148.02825165 C-117.52477529 107.05402061 -114.94627401 67.9815729 -84.890625 37.015625 C-62.11992087 14.24492087 -32.59155904 -0.17922925 0 0 Z " fill="#FFF7F2" transform="translate(538.1875,147.6875)"/>
<path d="M0 0 C1.23385941 -0.00570007 2.46771881 -0.01140015 3.7389679 -0.01727295 C6.33663083 -0.02666801 8.93430539 -0.0332349 11.53198242 -0.03710938 C15.45968896 -0.04680442 19.38686918 -0.07787755 23.31445312 -0.109375 C45.42516063 -0.20434834 65.77210177 0.43827131 82.6171875 16.7578125 C94.13780892 29.65925974 97.56540366 44.30413245 96.92822266 61.22265625 C96.00075302 75.63574757 88.87692505 88.28500913 78.5 97.92578125 C69.22204081 105.75363973 59.64672122 108.32105977 47.80078125 110.203125 C48.55101562 110.53183594 49.30125 110.86054687 50.07421875 111.19921875 C57.8734962 114.82381999 63.72744665 119.15084182 69.80078125 125.203125 C71.04214844 126.43675781 71.04214844 126.43675781 72.30859375 127.6953125 C73.13101563 128.52289062 73.9534375 129.35046875 74.80078125 130.203125 C75.52136719 130.92628906 76.24195313 131.64945313 76.984375 132.39453125 C86.36644152 142.26440019 93.78125566 153.65439086 101.30859375 164.9609375 C106.53435528 172.73402364 112.24334082 179.5475193 118.80078125 186.203125 C119.455625 186.87085938 120.11046875 187.53859375 120.78515625 188.2265625 C135.43045763 202.05823602 153.99240644 206.7679931 173.61328125 206.48046875 C184.68074369 206.07333845 194.46684949 202.2559029 204.2890625 197.375 C206.80078125 196.203125 206.80078125 196.203125 208.80078125 196.203125 C209.13078125 197.193125 209.46078125 198.183125 209.80078125 199.203125 C188.20944573 212.76047521 160.3677382 214.27740267 135.93701172 208.7421875 C101.37063568 200.01960941 78.96159862 173.13783914 59.73803711 144.93554688 C44.06194549 121.12063692 44.06194549 121.12063692 19.80078125 108.203125 C19.80078125 107.213125 19.80078125 106.223125 19.80078125 105.203125 C20.67814941 105.18854248 21.55551758 105.17395996 22.45947266 105.15893555 C25.73627446 105.0976282 29.01227069 105.02343167 32.28857422 104.94067383 C33.70252615 104.90756209 35.11660589 104.87948784 36.53076172 104.85668945 C38.57183948 104.82288725 40.61176053 104.77056536 42.65234375 104.71484375 C43.87775879 104.68865967 45.10317383 104.66247559 46.36572266 104.63549805 C53.41546968 103.74814183 57.42459425 100.14047635 61.84375 94.91015625 C73.19265665 79.21196801 74.96858514 58.60720179 72.49169922 39.86425781 C70.96330466 31.38098483 67.75918417 24.19922774 62.80078125 17.203125 C62.20265625 16.275 61.60453125 15.346875 60.98828125 14.390625 C53.12967564 6.53201939 43.11722881 4.95514935 32.45507812 4.9296875 C31.35228516 4.93742188 30.24949219 4.94515625 29.11328125 4.953125 C27.99888672 4.94539062 26.88449219 4.93765625 25.73632812 4.9296875 C24.12274414 4.93355469 24.12274414 4.93355469 22.4765625 4.9375 C21.02117065 4.94088379 21.02117065 4.94088379 19.53637695 4.94433594 C16.35237561 5.24554445 13.13826173 5.86564452 10.80078125 8.203125 C10.69282615 10.37303386 10.65663281 12.54651494 10.6468811 14.71908569 C10.64249885 15.40794377 10.6381166 16.09680185 10.63360155 16.80653441 C10.62016773 19.13193054 10.6140245 21.45728874 10.60791016 23.78271484 C10.60001287 25.44300002 10.59174416 27.10328346 10.58312988 28.76356506 C10.55686922 34.23038077 10.54159946 39.6972043 10.52734375 45.1640625 C10.52198596 47.04269033 10.51660846 48.92131811 10.5112114 50.79994583 C10.48957783 58.61142754 10.47083907 66.42290714 10.459589 74.23441124 C10.44333687 85.44710788 10.41013405 96.65945867 10.35318816 107.87202489 C10.31455321 115.74633688 10.29496405 123.62055611 10.28966844 131.49496043 C10.28600644 136.2029269 10.27389568 140.91052485 10.2415657 145.61838913 C10.21159767 150.04584789 10.20513256 154.47271299 10.21694946 158.90025139 C10.21717114 160.52769744 10.20878861 162.15517015 10.19129562 163.7825222 C10.16875007 166.00013772 10.17682724 168.21557368 10.19277954 170.43319702 C10.18946939 171.67539694 10.18615925 172.91759686 10.18274879 174.19743919 C10.5032339 177.37093266 10.5032339 177.37093266 13.13175011 179.08327675 C16.03275922 180.30045625 18.6826577 180.84055249 21.80078125 181.203125 C21.80078125 182.523125 21.80078125 183.843125 21.80078125 185.203125 C6.62078125 185.203125 -8.55921875 185.203125 -24.19921875 185.203125 C-24.19921875 183.883125 -24.19921875 182.563125 -24.19921875 181.203125 C-23.57273437 181.08195313 -22.94625 180.96078125 -22.30078125 180.8359375 C-21.48351562 180.66835938 -20.66625 180.50078125 -19.82421875 180.328125 C-19.01210938 180.16570312 -18.2 180.00328125 -17.36328125 179.8359375 C-15.01247952 179.33653568 -15.01247952 179.33653568 -13.19921875 177.203125 C-12.89037021 174.20012287 -12.89037021 174.20012287 -12.93852234 170.60487366 C-12.93469679 169.91924471 -12.93087124 169.23361576 -12.92692977 168.52721018 C-12.9165711 166.21866542 -12.92059726 163.91036806 -12.92456055 161.60180664 C-12.92021564 159.95122547 -12.91503324 158.30064632 -12.90907288 156.65007019 C-12.8956476 152.15837229 -12.89510812 147.66675836 -12.89763618 143.1750443 C-12.89870352 139.42983011 -12.89382858 135.68463307 -12.88903075 131.93942255 C-12.87792331 123.10616782 -12.87750507 114.27295561 -12.88354492 105.43969727 C-12.88958664 96.31697713 -12.87727152 87.19441115 -12.85597485 78.07171732 C-12.83838069 70.24833028 -12.83235404 62.42499239 -12.8356126 54.60158628 C-12.83742913 49.92504815 -12.83475259 45.24861997 -12.82089806 40.57209969 C-12.80835981 36.17508612 -12.81022562 31.77831348 -12.82330894 27.38130379 C-12.82568307 25.76516642 -12.8229103 24.14901231 -12.81468582 22.53289413 C-12.80428665 20.33109978 -12.81226289 18.13012416 -12.82499695 15.92835999 C-12.82474534 14.07806985 -12.82474534 14.07806985 -12.82448864 12.19040012 C-12.94805078 9.21910893 -12.94805078 9.21910893 -14.59492207 7.32845211 C-16.50705387 5.98719536 -18.10738789 5.50138403 -20.38671875 5.015625 C-22.27390625 4.6134375 -22.27390625 4.6134375 -24.19921875 4.203125 C-24.19921875 3.213125 -24.19921875 2.223125 -24.19921875 1.203125 C-16.11960629 0.32283223 -8.12416243 0.02972053 0 0 Z " fill="#FFF7F2" transform="translate(769.19921875,683.796875)"/>
<path d="M0 0 C1.35444466 0.00212242 1.35444466 0.00212242 2.73625183 0.00428772 C5.60935838 0.00986802 8.48238591 0.02241691 11.35546875 0.03515625 C13.30794158 0.0401738 15.26041564 0.04473626 17.21289062 0.04882812 C21.9896136 0.059831 26.76627779 0.07708207 31.54296875 0.09765625 C31.54296875 1.41765625 31.54296875 2.73765625 31.54296875 4.09765625 C30.47755859 4.40509766 30.47755859 4.40509766 29.390625 4.71875 C28.47152344 4.98816406 27.55242187 5.25757813 26.60546875 5.53515625 C25.68894531 5.80199219 24.77242188 6.06882812 23.828125 6.34375 C21.60271945 6.88791676 21.60271945 6.88791676 20.54296875 8.09765625 C20.41900004 10.2443391 20.36496155 12.39508012 20.33764648 14.54516602 C20.32774689 15.21830841 20.31784729 15.89145081 20.30764771 16.58499146 C20.27595037 18.8196455 20.25124301 21.05432083 20.2265625 23.2890625 C20.20600006 24.83463609 20.18500379 26.38020397 20.16358948 27.92576599 C20.10829538 32.00116357 20.05891862 36.0766125 20.01074219 40.15209961 C19.95176706 45.03799836 19.8854989 49.92380289 19.8204422 54.80962372 C19.72234039 62.23891053 19.63354768 69.66825673 19.54296875 77.09765625 C33.07296875 77.09765625 46.60296875 77.09765625 60.54296875 77.09765625 C60.45226552 65.08477872 60.45226552 65.08477872 60.33398438 53.07226562 C60.27962629 48.17377626 60.22851809 43.27540218 60.1965332 38.37670898 C60.17054826 34.4278191 60.13018075 30.47931559 60.07978249 26.53066444 C60.06308104 25.02321486 60.05158719 23.51569839 60.04535484 22.00816917 C60.03574885 19.89850614 60.00773456 17.78983886 59.9753418 15.68041992 C59.96423874 14.47906906 59.95313568 13.2777182 59.94169617 12.03996277 C59.78765245 9.11187796 59.78765245 9.11187796 58.15730286 7.24555969 C56.13805236 5.80973263 54.22275803 5.1306356 51.85546875 4.41015625 C51.04722656 4.15878906 50.23898437 3.90742187 49.40625 3.6484375 C48.79136719 3.46667969 48.17648437 3.28492188 47.54296875 3.09765625 C47.87296875 2.43765625 48.20296875 1.77765625 48.54296875 1.09765625 C53.20884208 -0.36711018 58.1612427 -0.02867242 63 0 C64.35444466 0.00212242 64.35444466 0.00212242 65.73625183 0.00428772 C68.60935838 0.00986802 71.48238591 0.02241691 74.35546875 0.03515625 C76.30794158 0.0401738 78.26041564 0.04473626 80.21289062 0.04882812 C84.9896136 0.059831 89.76627779 0.07708207 94.54296875 0.09765625 C94.54296875 1.41765625 94.54296875 2.73765625 94.54296875 4.09765625 C93.91648437 4.21882812 93.29 4.34 92.64453125 4.46484375 C91.41863281 4.71621094 91.41863281 4.71621094 90.16796875 4.97265625 C89.35585938 5.13507812 88.54375 5.2975 87.70703125 5.46484375 C85.35622952 5.96424557 85.35622952 5.96424557 83.54296875 8.09765625 C83.22830799 11.11723514 83.22830799 11.11723514 83.26881409 14.73387146 C83.26357741 15.42358396 83.25834073 16.11329646 83.25294536 16.82390934 C83.23788526 19.14625458 83.23723891 21.46838067 83.23657227 23.79077148 C83.22895486 25.45120621 83.22052809 27.11163738 83.21134949 28.77206421 C83.18935759 33.29060489 83.18059944 37.80907788 83.17552304 42.32766604 C83.17188533 45.14823703 83.16564839 47.96879013 83.15852165 50.78935432 C83.13401192 60.62235421 83.12097174 70.45530121 83.11743164 80.28833008 C83.11379403 89.465667 83.08388649 98.64266996 83.04202706 107.81990474 C83.0073834 115.69000224 82.99188424 123.55998874 82.99118561 131.43016201 C82.99039083 136.13474273 82.9815606 140.83898344 82.95318794 145.54348564 C82.92710809 149.96687674 82.92474509 154.38964348 82.94084358 158.81307602 C82.9426661 160.4389017 82.93589533 162.06476246 82.92002487 163.6905117 C82.89971235 165.90590911 82.91002441 168.11909122 82.92823792 170.3344574 C82.92522092 172.19580904 82.92522092 172.19580904 82.92214298 174.09476376 C83.24616778 177.26567163 83.24616778 177.26567163 85.87435818 178.97738743 C88.77523331 180.1951597 91.42475713 180.7350735 94.54296875 181.09765625 C94.54296875 182.41765625 94.54296875 183.73765625 94.54296875 185.09765625 C79.36296875 185.09765625 64.18296875 185.09765625 48.54296875 185.09765625 C48.21296875 184.43765625 47.88296875 183.77765625 47.54296875 183.09765625 C47.87296875 182.43765625 48.20296875 181.77765625 48.54296875 181.09765625 C50.5390625 180.53515625 50.5390625 180.53515625 52.98046875 180.09765625 C56.68137273 179.47514463 56.68137273 179.47514463 59.54296875 177.09765625 C59.7610419 174.02553736 59.85443513 171.04099653 59.86181641 167.96630859 C59.87186203 167.0199202 59.88190765 166.0735318 59.89225769 165.09846497 C59.92322859 161.96018093 59.94016338 158.82198272 59.95703125 155.68359375 C59.97573172 153.51168065 59.99530427 151.33977489 60.01571655 149.1678772 C60.06716223 143.44356611 60.10672128 137.71923143 60.14385986 131.99481201 C60.18382172 126.15663763 60.23494962 120.31856242 60.28515625 114.48046875 C60.38206278 103.0195938 60.46538878 91.55867834 60.54296875 80.09765625 C47.01296875 80.09765625 33.48296875 80.09765625 19.54296875 80.09765625 C19.56067637 92.69332643 19.59930839 105.28845078 19.67505932 117.88390827 C19.70938901 123.73214689 19.73444861 129.58012263 19.73852539 135.4284668 C19.74279548 141.06969403 19.7711512 146.71032763 19.81640053 152.35136986 C19.82941682 154.50636529 19.83366869 156.66143162 19.82912254 158.81646156 C19.82424595 161.8292255 19.85017829 164.84023461 19.88354492 167.8527832 C19.87060646 169.19713692 19.87060646 169.19713692 19.85740662 170.56864929 C19.90000281 172.85428039 19.97908728 174.88253619 20.54296875 177.09765625 C23.90936788 180.03233201 27.16080601 180.58810244 31.54296875 181.09765625 C31.54296875 182.41765625 31.54296875 183.73765625 31.54296875 185.09765625 C16.36296875 185.09765625 1.18296875 185.09765625 -14.45703125 185.09765625 C-14.45703125 183.77765625 -14.45703125 182.45765625 -14.45703125 181.09765625 C-9.01203125 180.10765625 -9.01203125 180.10765625 -3.45703125 179.09765625 C-3.45703125 122.66765625 -3.45703125 66.23765625 -3.45703125 8.09765625 C-8.89445599 5.34611458 -8.89445599 5.34611458 -14.45703125 4.09765625 C-14.45703125 3.10765625 -14.45703125 2.11765625 -14.45703125 1.09765625 C-9.64304344 -0.14786074 -4.93356238 -0.02923419 0 0 Z " fill="#FFF7F2" transform="translate(271.45703125,683.90234375)"/>
<path d="M0 0 C2.31255588 1.53067205 4.58187712 2.50339049 7.18359375 3.4453125 C7.94671875 2.6821875 8.70984375 1.9190625 9.49609375 1.1328125 C10.82640625 -0.1975 10.82640625 -0.1975 12.18359375 -1.5546875 C12.69921875 -2.1528125 13.21484375 -2.7509375 13.74609375 -3.3671875 C15.18359375 -4.5546875 15.18359375 -4.5546875 19.18359375 -4.5546875 C18.51759424 1.30415117 16.47914979 6.53465499 14.4375 12.0234375 C14.06632553 13.03122253 13.69515106 14.03900757 13.31272888 15.07733154 C12.5294041 17.1996661 11.74338171 19.32100672 10.95483398 21.44140625 C9.74622414 24.69496149 8.54934442 27.95266613 7.35351562 31.2109375 C6.59054376 33.27369655 5.82689528 35.3362055 5.0625 37.3984375 C4.52490807 38.86401093 4.52490807 38.86401093 3.97645569 40.35919189 C3.63948166 41.26062927 3.30250763 42.16206665 2.95532227 43.09082031 C2.66077652 43.88546692 2.36623077 44.68011353 2.0627594 45.49884033 C1.18359375 47.4453125 1.18359375 47.4453125 -0.81640625 49.4453125 C-2.13640625 49.4453125 -3.45640625 49.4453125 -4.81640625 49.4453125 C-4.65140625 48.5584375 -4.48640625 47.6715625 -4.31640625 46.7578125 C-2.47483692 32.8623348 -4.51140506 21.14123831 -12.69140625 9.5078125 C-14.03868235 7.79809663 -15.41168569 6.10815386 -16.81640625 4.4453125 C-17.34878906 3.80078125 -17.88117188 3.15625 -18.4296875 2.4921875 C-27.53558879 -7.54012062 -43.16646381 -15.83691177 -56.80957031 -16.67749023 C-75.77275985 -17.35007425 -91.79960796 -13.29574397 -106.515625 -0.69921875 C-124.50143501 16.06514406 -135.14612082 39.87429909 -136.19921875 64.41015625 C-136.53013904 78.15503841 -136.12967607 91.31839773 -131.81640625 104.4453125 C-131.60209961 105.10128418 -131.38779297 105.75725586 -131.16699219 106.43310547 C-126.47689153 120.25422452 -119.12894697 132.13277178 -108.81640625 142.4453125 C-108.18089844 143.08082031 -107.54539063 143.71632813 -106.890625 144.37109375 C-94.53201736 155.91091165 -78.71746258 161.92359952 -61.88671875 161.6484375 C-42.29644859 160.35238909 -26.43062862 150.67569417 -13.12890625 136.6953125 C-2.04110551 123.82554379 5.10818561 108.33484079 7.18359375 91.4453125 C11.07208152 94.95132606 13.71698108 98.99621307 16.49609375 103.3828125 C16.96337891 104.08599609 17.43066406 104.78917969 17.91210938 105.51367188 C21.19664807 110.69033773 21.19664807 110.69033773 21.13671875 114.15625 C12.2739652 135.44138762 -7.23036693 151.24232134 -27.81640625 160.4453125 C-50.57625275 169.76828129 -77.46840831 170.05518303 -100.2734375 160.68359375 C-108.8571196 156.92835071 -116.57850176 152.44080504 -123.81640625 146.4453125 C-124.66589844 145.74664063 -125.51539063 145.04796875 -126.390625 144.328125 C-144.16138421 129.03384219 -156.93806118 107.10724278 -158.81640625 83.4453125 C-160.11853972 57.5969131 -155.41680973 31.68322 -137.84106445 11.65795898 C-135.56681362 9.17980707 -133.21037136 6.80901682 -130.81640625 4.4453125 C-130.00171875 3.63191406 -129.18703125 2.81851563 -128.34765625 1.98046875 C-91.87172575 -32.65982239 -38.20585692 -28.47230238 0 0 Z " fill="#FFF7F2" transform="translate(211.81640625,704.5546875)"/>
<path d="M0 0 C1.16015625 0.00322266 2.3203125 0.00644531 3.515625 0.00976562 C5.32546875 0.02233398 5.32546875 0.02233398 7.171875 0.03515625 C9.00492188 0.04192383 9.00492188 0.04192383 10.875 0.04882812 C13.89067446 0.0606081 16.90624998 0.07705772 19.921875 0.09765625 C19.921875 1.41765625 19.921875 2.73765625 19.921875 4.09765625 C19.21160156 4.30261719 18.50132812 4.50757813 17.76953125 4.71875 C16.39087891 5.12287109 16.39087891 5.12287109 14.984375 5.53515625 C14.06785156 5.80199219 13.15132812 6.06882812 12.20703125 6.34375 C9.9816257 6.88791676 9.9816257 6.88791676 8.921875 8.09765625 C8.80115446 10.0218561 8.75104976 11.95050127 8.7276001 13.87834167 C8.71032867 15.13528839 8.69305725 16.39223511 8.67526245 17.68727112 C8.66125499 19.09383974 8.64743699 20.50041026 8.63378906 21.90698242 C8.61607319 23.37880791 8.59807125 24.85062999 8.57980347 26.32244873 C8.41988831 39.84306513 8.33620768 53.36472575 8.26980972 66.88608837 C8.21982246 76.86319298 8.13437249 86.83862627 8.00118852 96.81497401 C7.91054746 103.84539296 7.86325433 110.87536063 7.84623122 117.90633756 C7.83486698 122.09421335 7.80536245 126.27995933 7.72827911 130.46718407 C7.39198298 149.52539805 7.99364344 164.91360893 18.9297142 181.41573048 C19.921875 183.09765625 19.921875 183.09765625 19.921875 185.09765625 C12.661875 185.09765625 5.401875 185.09765625 -2.078125 185.09765625 C-3.55023437 182.21402344 -5.02234375 179.33039063 -6.5390625 176.359375 C-8.00183774 173.49603289 -9.46501241 170.63289522 -10.92822266 167.76977539 C-11.92733589 165.81425836 -12.92604866 163.85853666 -13.92431641 161.90258789 C-19.38665913 151.20068681 -24.88428326 140.52054971 -30.49697876 129.89665222 C-34.29248877 122.7080192 -38.016722 115.48391958 -41.72479248 108.24987793 C-43.66050966 104.47396051 -45.59987472 100.69991714 -47.5390625 96.92578125 C-47.92554962 96.17347229 -48.31203674 95.42116333 -48.7102356 94.64605713 C-52.27690894 87.70582534 -55.86045691 80.77446806 -59.453125 73.84765625 C-59.95038086 72.88859375 -60.44763672 71.92953125 -60.95996094 70.94140625 C-64.73049835 63.67711266 -68.51687489 56.42110081 -72.30322266 49.16503906 C-72.85931717 48.09927643 -73.41541168 47.03351379 -73.98835754 45.93545532 C-75.35157802 43.32283719 -76.71483482 40.71023801 -78.078125 38.09765625 C-78.19484358 56.1691277 -78.2830567 74.24050155 -78.33718586 92.31226826 C-78.36298524 100.70301717 -78.39816855 109.09353211 -78.45532227 117.48413086 C-78.50510457 124.79602546 -78.5374034 132.10775064 -78.54856747 139.41981 C-78.55509514 143.29283088 -78.57047196 147.16536704 -78.60677528 151.0382328 C-78.64065371 154.68184702 -78.65119491 158.32477581 -78.64366341 161.96853256 C-78.64570002 163.94686868 -78.67263794 165.92512973 -78.70022583 167.90327454 C-78.68991585 169.66381165 -78.68991585 169.66381165 -78.67939758 171.45991516 C-78.68400655 172.48218358 -78.68861551 173.504452 -78.69336414 174.55769825 C-78.30561846 177.30223351 -78.30561846 177.30223351 -75.77882671 178.90704632 C-72.55084808 180.33010737 -69.57553484 180.75477293 -66.078125 181.09765625 C-66.078125 182.41765625 -66.078125 183.73765625 -66.078125 185.09765625 C-75.978125 185.09765625 -85.878125 185.09765625 -96.078125 185.09765625 C-96.078125 183.77765625 -96.078125 182.45765625 -96.078125 181.09765625 C-90.633125 180.10765625 -90.633125 180.10765625 -85.078125 179.09765625 C-84.81995274 159.25118149 -84.62660092 139.40505237 -84.50819111 119.55724049 C-84.45172354 110.33926213 -84.37489019 101.12233337 -84.24829102 91.9050293 C-84.13786338 83.86121918 -84.06750133 75.81816987 -84.04315156 67.77362269 C-84.02894025 63.52257394 -83.99610267 59.27369954 -83.91509438 55.02335548 C-83.56991002 36.21080498 -83.72768286 20.70398756 -95.0854063 4.68183422 C-96.078125 3.09765625 -96.078125 3.09765625 -96.078125 1.09765625 C-88.818125 1.09765625 -81.558125 1.09765625 -74.078125 1.09765625 C-67.26592548 14.11844267 -60.4901546 27.15648232 -53.765625 40.22265625 C-53.40512054 40.9231308 -53.04461609 41.62360535 -52.67318726 42.3453064 C-52.12956039 43.40160751 -52.12956039 43.40160751 -51.57495117 44.47924805 C-50.84294954 45.90153681 -50.11093458 47.32381872 -49.37890625 48.74609375 C-49.01744003 49.44839615 -48.65597382 50.15069855 -48.28355408 50.87428284 C-44.6821133 57.86991161 -41.06927476 64.85962186 -37.453125 71.84765625 C-37.14690216 72.43947693 -36.84067932 73.03129761 -36.525177 73.64105225 C-34.37656206 77.79346188 -32.22740306 81.94558979 -30.078125 86.09765625 C-22.0719039 101.56441351 -14.07547541 117.03609312 -6.1015625 132.51953125 C-5.31731142 134.04216009 -4.5330504 135.56478381 -3.7487793 137.08740234 C-1.85844719 140.75742827 0.03175246 144.42752239 1.921875 148.09765625 C1.99190631 130.02614263 2.04483429 111.95466415 2.07731152 93.88304424 C2.09279099 85.49237728 2.11390107 77.10179455 2.14819336 68.71118164 C2.17806274 61.39928803 2.19744214 54.08745542 2.20414048 46.7755025 C2.20805695 42.90261812 2.21728339 39.02990824 2.23906517 35.1570797 C2.25939158 31.51358128 2.26571669 27.87032967 2.26119804 24.22677994 C2.26241998 22.24850065 2.27858221 20.27024838 2.2951355 18.29203796 C2.29101151 17.11834656 2.28688751 15.94465515 2.28263855 14.73539734 C2.28540393 13.71312892 2.28816931 12.6908605 2.29101849 11.63761425 C2.12716459 9.06241025 2.12716459 9.06241025 0.5406847 7.29095173 C-1.51755706 5.77373164 -3.26186391 5.38187935 -5.765625 4.91015625 C-6.57386719 4.75160156 -7.38210938 4.59304688 -8.21484375 4.4296875 C-8.82972656 4.32011719 -9.44460938 4.21054687 -10.078125 4.09765625 C-10.078125 3.10765625 -10.078125 2.11765625 -10.078125 1.09765625 C-6.66747361 0.05791126 -3.55547658 -0.01742881 0 0 Z " fill="#FFF7F2" transform="translate(550.078125,683.90234375)"/>
<path d="M0 0 C11.55 0 23.1 0 35 0 C41.89196803 25.93458705 48.7644134 51.87425201 55.60886955 77.82141495 C56.82869752 82.44499401 58.05022827 87.06811921 59.27316856 91.69087601 C60.28688954 95.52292271 61.2998915 99.35515919 62.3125 103.1875 C62.61060011 104.31564243 62.61060011 104.31564243 62.91472244 105.46657562 C65.53982178 115.40638705 68.1310519 125.35430284 70.68884087 135.31163788 C71.80127741 139.63584395 72.92291589 143.957677 74.04299927 148.27990723 C74.6343833 150.57410038 75.22079567 152.86958145 75.80197144 155.16638184 C76.59411547 158.29648779 77.40259258 161.42193732 78.21484375 164.546875 C78.44006714 165.45679199 78.66529053 166.36670898 78.89733887 167.30419922 C80.10214295 171.86860844 81.03098556 175.08187954 85 178 C87.56156672 178.89561116 87.56156672 178.89561116 90.25 179.25 C91.14203125 179.39953125 92.0340625 179.5490625 92.953125 179.703125 C93.96632813 179.85007812 93.96632813 179.85007812 95 180 C95 181.32 95 182.64 95 184 C79.49 184 63.98 184 48 184 C48 182.68 48 181.36 48 180 C51.96 179.01 51.96 179.01 56 178 C57.08061939 173.67752246 56.75787583 172.11225249 55.64477539 167.90209961 C55.32436783 166.67079819 55.00396027 165.43949677 54.67384338 164.17088318 C54.31520653 162.83134535 53.95647521 161.49183281 53.59765625 160.15234375 C53.23656644 158.77543754 52.87642662 157.39828189 52.51719666 156.02088928 C51.57017141 152.39819786 50.61237905 148.77844691 49.65167236 145.15936279 C48.11486599 139.36382126 46.59321855 133.56429526 45.07385063 127.76416206 C44.54136963 125.73848087 44.00359274 123.71426136 43.46510315 121.69017029 C43.14154343 120.46202103 42.8179837 119.23387177 42.48461914 117.96850586 C42.19736465 116.88580917 41.91011017 115.80311249 41.614151 114.68760681 C41 112 41 112 41 109 C25.82 109 10.64 109 -5 109 C-5.66 112.63 -6.32 116.26 -7 120 C-7.42142463 121.94455066 -7.85954699 123.8857246 -8.32861328 125.81933594 C-8.68876022 127.31578644 -8.68876022 127.31578644 -9.05618286 128.84246826 C-9.30834564 129.87929749 -9.56050842 130.91612671 -9.8203125 131.984375 C-10.36096192 134.24081719 -10.90131791 136.4973297 -11.44140625 138.75390625 C-12.28522631 142.2656361 -13.13148347 145.77672725 -13.98291016 149.28662109 C-14.81074245 152.70505909 -15.62871016 156.12573965 -16.4453125 159.546875 C-16.70152374 160.59180115 -16.95773499 161.63672729 -17.22171021 162.71331787 C-18.46342002 167.94491971 -19.3084543 172.62138702 -19 178 C-14.545 178.99 -14.545 178.99 -10 180 C-10 181.32 -10 182.64 -10 184 C-19.9 184 -29.8 184 -40 184 C-40 182.68 -40 181.36 -40 180 C-39.31292969 179.87882813 -38.62585938 179.75765625 -37.91796875 179.6328125 C-37.01691406 179.46523438 -36.11585938 179.29765625 -35.1875 179.125 C-34.29417969 178.96257812 -33.40085937 178.80015625 -32.48046875 178.6328125 C-29.77272154 178.08811551 -29.77272154 178.08811551 -27 176 C-26.1644672 174.06697862 -26.1644672 174.06697862 -25.67919922 171.74780273 C-25.45887527 170.84164719 -25.23855133 169.93549164 -25.0115509 169.00187683 C-24.77828598 167.98934341 -24.54502106 166.97681 -24.3046875 165.93359375 C-24.04366745 164.8446431 -23.7826474 163.75569244 -23.51371765 162.63374329 C-22.77890513 159.55773352 -22.05493876 156.47938936 -21.33519363 153.39982605 C-20.55740056 150.08321431 -19.76618147 146.76980856 -18.97631836 143.45605469 C-17.71394314 138.15360462 -16.45698905 132.84990451 -15.20472622 127.5450573 C-12.26319825 115.08546139 -9.28839117 102.63389905 -6.31035614 90.18298531 C-4.01295239 80.57610323 -1.71883707 70.96843492 0.57527924 61.36076736 C1.15178912 58.94648652 1.72839388 56.53222833 2.30509186 54.1179924 C3.96800518 47.15595241 5.62862323 40.19337295 7.28569603 33.22994041 C7.79863128 31.07601389 8.31235824 28.92227573 8.82689857 26.76873207 C9.53440887 23.80692979 10.23913035 20.84447783 10.94311523 17.88183594 C11.15334887 17.00448005 11.3635825 16.12712416 11.58018684 15.22318172 C12.61603512 11.1567185 12.61603512 11.1567185 13 7 C11.58398286 6.51891725 10.16715563 6.04021859 8.75 5.5625 C7.96109375 5.29566406 7.1721875 5.02882813 6.359375 4.75390625 C4.25178012 4.08045292 2.15246027 3.50849405 0 3 C0 2.01 0 1.02 0 0 Z M16 19 C13.5174714 29.49077345 11.03973341 39.98266555 8.56812286 50.476017 C7.42033319 55.34834195 6.27089043 60.22026456 5.11767578 65.09130859 C4.00504302 69.79121005 2.89674489 74.49211423 1.79145813 79.19374847 C1.36878516 80.98827337 0.94454559 82.78243001 0.51872253 84.57621002 C-0.07694321 87.08663674 -0.6670502 89.59830921 -1.25585938 92.11035156 C-1.52235542 93.22489464 -1.52235542 93.22489464 -1.79423523 94.36195374 C-2.57199987 97.70443826 -3 100.54292075 -3 104 C10.86 104 24.72 104 39 104 C37.82725317 97.54989244 36.70655633 91.45754795 35.06054688 85.17358398 C34.87814957 84.4729332 34.69575226 83.77228241 34.50782776 83.05039978 C33.91576297 80.78114782 33.31762665 78.5135567 32.71875 76.24609375 C32.30024824 74.65239263 31.88191626 73.05864691 31.46374512 71.46485901 C30.59248894 68.14857413 29.71796983 64.83317049 28.84130859 61.51831055 C27.71736134 57.26660851 26.60364527 53.01229878 25.49251556 48.75723171 C24.63425618 45.47639415 23.76971538 42.1972368 22.90333557 38.91853523 C22.48970439 37.34938554 22.07826409 35.77965664 21.66905212 34.20934868 C21.09904481 32.02506802 20.52040174 29.84325728 19.93945312 27.66186523 C19.44886414 25.79968605 19.44886414 25.79968605 18.94836426 23.89988708 C18.21303752 20.91151349 18.21303752 20.91151349 16 19 Z " fill="#FFF7F2" transform="translate(932,685)"/>
<path d="M0 0 C11.55 0 23.1 0 35 0 C41.4720211 24.34920586 47.92883102 48.70222683 54.33187866 73.06967163 C56.2066191 80.20178624 58.08462084 87.33304272 59.96281433 94.46424866 C61.7349919 101.19326102 63.50542583 107.92272419 65.2734375 114.65283203 C67.02396596 121.31580376 68.77889722 127.97760196 70.53823471 134.63825321 C71.48371815 138.21824453 72.42735588 141.79869775 73.36633301 145.38040161 C74.41020058 149.36194331 75.46256545 153.34119205 76.515625 157.3203125 C76.82435547 158.50307266 77.13308594 159.68583282 77.45117188 160.9044342 C79.62420654 169.17685178 79.62420654 169.17685178 83 177 C85.8949634 178.47477023 85.8949634 178.47477023 89.1875 178.9375 C90.81751953 179.26041016 90.81751953 179.26041016 92.48046875 179.58984375 C93.72763672 179.79287109 93.72763672 179.79287109 95 180 C95 181.32 95 182.64 95 184 C79.49 184 63.98 184 48 184 C48 182.68 48 181.36 48 180 C51.96 179.01 51.96 179.01 56 178 C57.08061939 173.67752246 56.75787583 172.11225249 55.64477539 167.90209961 C55.32436783 166.67079819 55.00396027 165.43949677 54.67384338 164.17088318 C54.31520653 162.83134535 53.95647521 161.49183281 53.59765625 160.15234375 C53.23656644 158.77543754 52.87642662 157.39828189 52.51719666 156.02088928 C51.57017141 152.39819786 50.61237905 148.77844691 49.65167236 145.15936279 C48.11486599 139.36382126 46.59321855 133.56429526 45.07385063 127.76416206 C44.54136963 125.73848087 44.00359274 123.71426136 43.46510315 121.69017029 C43.14154343 120.46202103 42.8179837 119.23387177 42.48461914 117.96850586 C42.19736465 116.88580917 41.91011017 115.80311249 41.614151 114.68760681 C41 112 41 112 41 109 C25.82 109 10.64 109 -5 109 C-5.66 112.96 -6.32 116.92 -7 121 C-7.41466363 122.98900014 -7.85004645 124.97413145 -8.32861328 126.94873047 C-8.68876022 128.44990921 -8.68876022 128.44990921 -9.05618286 129.98141479 C-9.30834564 131.01621979 -9.56050842 132.05102478 -9.8203125 133.1171875 C-10.36081232 135.37496763 -10.9011729 137.6327811 -11.44140625 139.890625 C-12.28619962 143.39999431 -13.13318977 146.90881251 -13.98291016 150.41699219 C-14.8095115 153.83652645 -15.62785471 157.25795779 -16.4453125 160.6796875 C-16.70152374 161.72663788 -16.95773499 162.77358826 -17.22171021 163.8522644 C-18.36479412 168.65292142 -19.34656789 173.02404824 -19 178 C-14.545 178.99 -14.545 178.99 -10 180 C-10 181.32 -10 182.64 -10 184 C-19.9 184 -29.8 184 -40 184 C-40 182.68 -40 181.36 -40 180 C-39.31292969 179.87882813 -38.62585938 179.75765625 -37.91796875 179.6328125 C-37.01691406 179.46523438 -36.11585938 179.29765625 -35.1875 179.125 C-34.29417969 178.96257812 -33.40085937 178.80015625 -32.48046875 178.6328125 C-29.77272154 178.08811551 -29.77272154 178.08811551 -27 176 C-26.1036327 173.2844215 -25.39214821 170.67611354 -24.75 167.8984375 C-24.53970657 167.03190048 -24.32941315 166.16536346 -24.11274719 165.27256775 C-23.39696087 162.30935834 -22.69861548 159.34230111 -22 156.375 C-21.48818 154.23959794 -20.97537091 152.10443276 -20.46166992 149.96948242 C-19.13574714 144.44424754 -17.82229834 138.91613665 -16.51346684 133.38683033 C-15.2552865 128.07302863 -13.99133623 122.76061739 -12.72509766 117.44873047 C-8.29359641 98.85726812 -3.87129539 80.26364928 0.52780151 61.66448975 C0.90832964 60.05578237 1.28887368 58.44707876 1.66943359 56.83837891 C1.95185819 55.64450939 1.95185819 55.64450939 2.23998833 54.4265213 C3.4665163 49.24494527 4.69857711 44.06471015 5.93399715 38.88524723 C6.78111373 35.33317202 7.62662565 31.7807157 8.47202492 28.22823143 C8.87620756 26.53183309 9.28118502 24.83562391 9.68698692 23.1396122 C10.24621106 20.80212492 10.80272421 18.46400774 11.35864258 16.12573242 C11.52591417 15.429774 11.69318577 14.73381557 11.8655262 14.0167675 C12.71315178 10.54626875 12.71315178 10.54626875 13 7 C11.58398286 6.51891725 10.16715563 6.04021859 8.75 5.5625 C7.96109375 5.29566406 7.1721875 5.02882813 6.359375 4.75390625 C4.25178012 4.08045292 2.15246027 3.50849405 0 3 C0 2.01 0 1.02 0 0 Z M16 19 C13.5174714 29.49077345 11.03973341 39.98266555 8.56812286 50.476017 C7.42033319 55.34834195 6.27089043 60.22026456 5.11767578 65.09130859 C4.00504302 69.79121005 2.89674489 74.49211423 1.79145813 79.19374847 C1.36878516 80.98827337 0.94454559 82.78243001 0.51872253 84.57621002 C-0.07694321 87.08663674 -0.6670502 89.59830921 -1.25585938 92.11035156 C-1.52235542 93.22489464 -1.52235542 93.22489464 -1.79423523 94.36195374 C-2.57199987 97.70443826 -3 100.54292075 -3 104 C10.86 104 24.72 104 39 104 C37.82725317 97.54989244 36.70655633 91.45754795 35.06054688 85.17358398 C34.87814957 84.4729332 34.69575226 83.77228241 34.50782776 83.05039978 C33.91576297 80.78114782 33.31762665 78.5135567 32.71875 76.24609375 C32.30024824 74.65239263 31.88191626 73.05864691 31.46374512 71.46485901 C30.59248894 68.14857413 29.71796983 64.83317049 28.84130859 61.51831055 C27.71736134 57.26660851 26.60364527 53.01229878 25.49251556 48.75723171 C24.63425618 45.47639415 23.76971538 42.1972368 22.90333557 38.91853523 C22.48970439 37.34938554 22.07826409 35.77965664 21.66905212 34.20934868 C21.09904481 32.02506802 20.52040174 29.84325728 19.93945312 27.66186523 C19.44886414 25.79968605 19.44886414 25.79968605 18.94836426 23.89988708 C18.21303752 20.91151349 18.21303752 20.91151349 16 19 Z " fill="#FFF7F2" transform="translate(629,685)"/>
<path d="M0 0 C0.90154816 0.00141495 1.80309631 0.0028299 2.73196411 0.00428772 C5.5947815 0.00985885 8.45751898 0.02240599 11.3203125 0.03515625 C13.26822803 0.04017498 15.2161448 0.04473724 17.1640625 0.04882812 C21.92450968 0.05981883 26.68489757 0.07706348 31.4453125 0.09765625 C31.4453125 1.41765625 31.4453125 2.73765625 31.4453125 4.09765625 C30.83042969 4.23042969 30.21554687 4.36320313 29.58203125 4.5 C28.36966797 4.76490234 28.36966797 4.76490234 27.1328125 5.03515625 C25.93205078 5.29619141 25.93205078 5.29619141 24.70703125 5.5625 C22.2999115 6.09651784 22.2999115 6.09651784 19.4453125 7.09765625 C19.4453125 63.52765625 19.4453125 119.95765625 19.4453125 178.09765625 C23.4053125 179.08765625 27.3653125 180.07765625 31.4453125 181.09765625 C31.4453125 182.41765625 31.4453125 183.73765625 31.4453125 185.09765625 C16.2653125 185.09765625 1.0853125 185.09765625 -14.5546875 185.09765625 C-14.5546875 183.77765625 -14.5546875 182.45765625 -14.5546875 181.09765625 C-13.92820312 180.97648438 -13.30171875 180.8553125 -12.65625 180.73046875 C-11.83898437 180.56289063 -11.02171875 180.3953125 -10.1796875 180.22265625 C-9.36757813 180.06023437 -8.55546875 179.8978125 -7.71875 179.73046875 C-5.36794827 179.23106693 -5.36794827 179.23106693 -3.5546875 177.09765625 C-3.24583896 174.09465412 -3.24583896 174.09465412 -3.29399109 170.49940491 C-3.29016554 169.81377596 -3.28633999 169.12814701 -3.28239852 168.42174143 C-3.27203985 166.11319667 -3.27606601 163.80489931 -3.2800293 161.49633789 C-3.27568439 159.84575672 -3.27050199 158.19517757 -3.26454163 156.54460144 C-3.25111635 152.05290354 -3.25057687 147.56128961 -3.25310493 143.06957555 C-3.25417227 139.32436136 -3.24929733 135.57916432 -3.2444995 131.8339538 C-3.23339206 123.00069907 -3.23297382 114.16748686 -3.23901367 105.33422852 C-3.24505539 96.21150838 -3.23274027 87.0889424 -3.2114436 77.96624857 C-3.19384944 70.14286153 -3.18782279 62.31952364 -3.19108135 54.49611753 C-3.19289788 49.8195794 -3.19022134 45.14315122 -3.17636681 40.46663094 C-3.16382856 36.06961737 -3.16569437 31.67284473 -3.17877769 27.27583504 C-3.18115182 25.65969767 -3.17837905 24.04354356 -3.17015457 22.42742538 C-3.1597554 20.22563103 -3.16773164 18.02465541 -3.1804657 15.82289124 C-3.18021409 13.9726011 -3.18021409 13.9726011 -3.17995739 12.08493137 C-3.30360942 9.11716548 -3.30360942 9.11716548 -4.93671894 7.23665524 C-6.95896708 5.81305614 -8.87907281 5.12936507 -11.2421875 4.41015625 C-12.05042969 4.15878906 -12.85867188 3.90742187 -13.69140625 3.6484375 C-14.30628906 3.46667969 -14.92117188 3.28492188 -15.5546875 3.09765625 C-15.5546875 2.43765625 -15.5546875 1.77765625 -15.5546875 1.09765625 C-10.32555322 0.02281997 -5.30961951 -0.03165009 0 0 Z " fill="#FFF7F2" transform="translate(401.5546875,683.90234375)"/>
<path d="M0 0 C0.06942445 13.11691838 0.12277285 26.23379325 0.15543652 39.35085773 C0.1711112 45.44124643 0.19238249 51.53150968 0.22631836 57.62182617 C0.25884731 63.49622523 0.27683942 69.37050343 0.28463173 75.24498558 C0.29018686 77.48935029 0.30103426 79.73370818 0.31719017 81.97802162 C0.3388783 85.11480782 0.34197051 88.25109069 0.34057617 91.38793945 C0.351362 92.32157822 0.36214783 93.25521698 0.3732605 94.21714783 C0.36707451 95.49807816 0.36707451 95.49807816 0.36076355 96.80488586 C0.36352893 97.54692922 0.36629431 98.28897257 0.36914349 99.05350208 C-0.11217673 101.59150919 -0.94328603 102.47114142 -3 104 C-5.65834628 104.26154123 -8.07685104 104.34939122 -10.73046875 104.29296875 C-11.48088943 104.28872391 -12.23131012 104.28447906 -13.00447083 104.28010559 C-15.39918026 104.2633245 -17.79304534 104.2256749 -20.1875 104.1875 C-21.8118368 104.17245235 -23.4361868 104.15876409 -25.06054688 104.14648438 C-29.04068948 104.11342305 -33.02020163 104.06164594 -37 104 C-37.06943354 92.05653928 -37.12277746 80.11312637 -37.15543652 68.16950512 C-37.17110923 62.62391735 -37.19237688 57.07846742 -37.22631836 51.53295898 C-37.25885442 46.18375095 -37.27684091 40.83467569 -37.28463173 35.48537636 C-37.29018558 33.44196799 -37.30103057 31.39856709 -37.31719017 29.35521507 C-37.33888791 26.49861172 -37.34197013 23.64256084 -37.34057617 20.78588867 C-37.351362 19.93640656 -37.36214783 19.08692444 -37.3732605 18.21170044 C-37.3426265 12.43085138 -37.3426265 12.43085138 -35.67361927 10.33208179 C-33.06124396 8.25281702 -30.22409053 7.65107381 -27.03125 6.73828125 C-26.35453247 6.54276169 -25.67781494 6.34724213 -24.98059082 6.14579773 C-23.55299931 5.73539089 -22.12404098 5.3297128 -20.69384766 4.9284668 C-18.50494218 4.31388762 -16.3206827 3.68462401 -14.13671875 3.05273438 C-3.46487682 0 -3.46487682 0 0 0 Z " fill="#FFF7F2" transform="translate(592,426)"/>
<path d="M0 0 C1.65 0 3.3 0 5 0 C5.33 3.3 5.66 6.6 6 10 C6.66 9.67 7.32 9.34 8 9 C12.28819956 8.56191282 15.94422448 8.55073382 19.9375 10.25 C22.74388138 12.63117208 23.80092749 14.73012691 24.37109375 18.3671875 C24.48825451 22.791729 24.54275862 26.01062707 21.6875 29.5625 C18.46162973 32.48828931 16.88110391 32.95193979 12.5625 33.1875 C9.30493264 33.01604909 7.6894209 32.72122938 5 31 C5 31.66 5 32.32 5 33 C3.35 33 1.7 33 0 33 C0 22.11 0 11.22 0 0 Z M6 16 C4.74588432 19.36174137 4.74588432 19.36174137 5 23 C6.389089 26.04913936 6.389089 26.04913936 9 28 C12 28.75 12 28.75 15 28 C17.5 26.5 17.5 26.5 19 24 C19.49366687 20.61485573 19.37766945 18.73546155 17.8125 15.6875 C13.76620639 11.92026112 10.01237068 12.43344829 6 16 Z " fill="#FFF7F2" transform="translate(273,891)"/>
<path d="M0 0 C1.65 0 3.3 0 5 0 C5 10.89 5 21.78 5 33 C2 33 -1 33 -4 33 C-5.11375 33.0825 -6.2275 33.165 -7.375 33.25 C-11.75339513 32.94804172 -13.66217644 31.79445694 -17 29 C-19.54993405 24.82579288 -19.83355164 20.77022624 -19 16 C-17.28631391 12.92938032 -15.19098548 10.59549274 -12 9 C-10.50243129 8.90500497 -9.00057068 8.87012802 -7.5 8.875 C-6.30890625 8.87113281 -6.30890625 8.87113281 -5.09375 8.8671875 C-3 9 -3 9 -1 10 C-0.67 6.7 -0.34 3.4 0 0 Z M-12 15 C-14.35618542 17.88599388 -14.35618542 17.88599388 -13.8125 21.5 C-13.22728871 24.85835631 -13.22728871 24.85835631 -11.8125 26.9375 C-9.04411529 28.56034621 -7.14454533 28.44922076 -4 28 C-1.5 26.5 -1.5 26.5 0 24 C0.49366687 20.61485573 0.37766945 18.73546155 -1.1875 15.6875 C-4.69613007 12.42084442 -8.10624385 12.31465093 -12 15 Z " fill="#FFF7F2" transform="translate(618,891)"/>
<path d="M0 0 C1.65 0 3.3 0 5 0 C5.33 3.3 5.66 6.6 6 10 C6.66 9.67 7.32 9.34 8 9 C11.79415519 8.46881827 15.46331178 8.14910652 18.890625 10.046875 C21.81524257 12.46039435 23.79355388 14.36022799 24.2734375 18.171875 C24.58145128 25.99068626 24.58145128 25.99068626 21.6875 29.5625 C17.52138716 33.34106746 14.43882695 33.09541802 9 33 C7.68 33 6.36 33 5 33 C3.35 33 1.7 33 0 33 C0 22.11 0 11.22 0 0 Z M6 16 C4.57958179 18.84083641 4.68547728 20.85477278 5 24 C6.5 26.5 6.5 26.5 9 28 C12.6717087 28.61195145 14.28813568 28.48706506 17.375 26.375 C19.48706506 23.28813568 19.61195145 21.6717087 19 18 C17.20412315 15.62687702 15.73136969 14.35388856 13.0625 13.0625 C10.02336335 12.97040495 8.40850619 14.24244143 6 16 Z " fill="#FFF7F2" transform="translate(543,891)"/>
<path d="M0 0 C-0.33 1.32 -0.66 2.64 -1 4 C-5 4 -5 4 -7.3125 2.9375 C-10.94764099 1.66942756 -13.29350682 2.05652901 -17 3 C-20.21830373 5.20199729 -20.88939752 6.60183107 -21.9375 10.375 C-22.00954896 14.55383955 -21.32455736 16.55324254 -19 20 C-15.65677249 22.62682161 -12.1137573 22.29918235 -8 22 C-7.01 21.34 -6.02 20.68 -5 20 C-2.8125 20.375 -2.8125 20.375 -1 21 C-1 22.32 -1 23.64 -1 25 C-6.05673131 28.11183465 -10.21190817 28.86184785 -16 28 C-20.48273941 26.67178092 -23.88568079 24.75691145 -26.5 20.8125 C-28.52393658 16.62070245 -28.68211818 12.55854591 -28 8 C-26.31217874 3.29186702 -24.21551203 0.68259856 -20 -2 C-13.16298022 -4.94930265 -6.15692208 -4.10461472 0 0 Z " fill="#FFF7F2" transform="translate(366,896)"/>
<path d="M0 0 C3.24934121 1.82775443 4.5600113 3.18287812 6.3125 6.4375 C7 9 7 9 7 14 C1.06 14 -4.88 14 -11 14 C-10.01 15.32 -9.02 16.64 -8 18 C-3.82064283 18.38697752 -0.06816379 17.98622152 4 17 C4.33 18.32 4.66 19.64 5 21 C1.43988498 23.67008626 -1.45864567 24.53818143 -5.9375 24.3515625 C-9.68093539 23.71347692 -11.93631683 22.26712554 -15 20 C-17.3922523 16.15159412 -17.46878416 12.45344955 -17 8 C-12.77055342 0.27032176 -8.38754907 -1.0852899 0 0 Z M-11 7 C-11.33 7.99 -11.66 8.98 -12 10 C-7.38 10 -2.76 10 2 10 C-0.32530228 5.00883883 -0.32530228 5.00883883 -3.375 4 C-6.76825502 4 -8.34393549 4.93417205 -11 7 Z " fill="#FFF7F2" transform="translate(752,900)"/>
<path d="M0 0 C1.65 0 3.3 0 5 0 C5.33 3.3 5.66 6.6 6 10 C6.66 9.67 7.32 9.34 8 9 C9.98828125 8.7265625 9.98828125 8.7265625 12.3125 8.625 C13.07175781 8.57601562 13.83101563 8.52703125 14.61328125 8.4765625 C18.4157457 9.31049087 19.74049587 10.86444251 22 14 C22.5930216 17.2974204 22.47422113 20.47606861 22.3125 23.8125 C22.28994141 24.69615234 22.26738281 25.57980469 22.24414062 26.49023438 C22.18547428 28.6608891 22.09579979 30.8306669 22 33 C20.35 33 18.7 33 17 33 C16.93941406 31.86820313 16.87882812 30.73640625 16.81640625 29.5703125 C16.73200083 28.08852855 16.64735283 26.6067584 16.5625 25.125 C16.52318359 24.37863281 16.48386719 23.63226562 16.44335938 22.86328125 C16.28426376 18.80013136 16.28426376 18.80013136 15 15 C11.58343976 14.83322718 11.58343976 14.83322718 8 15 C5.06552643 17.93447357 5.53841577 21.18259456 5.375 25.125 C5.33632813 25.87910156 5.29765625 26.63320313 5.2578125 27.41015625 C5.16348969 29.27303184 5.08065338 31.13648255 5 33 C3.35 33 1.7 33 0 33 C0 22.11 0 11.22 0 0 Z " fill="#FFF7F2" transform="translate(372,891)"/>
<path d="M0 0 C2.65563802 1.8968843 3.57242527 3.14485055 5 6 C5.08308638 7.37548156 5.10736016 8.75485796 5.09765625 10.1328125 C5.09443359 10.93847656 5.09121094 11.74414062 5.08789062 12.57421875 C5.07951172 13.41597656 5.07113281 14.25773438 5.0625 15.125 C5.05798828 15.97449219 5.05347656 16.82398438 5.04882812 17.69921875 C5.03702874 19.79950909 5.01909306 21.8997633 5 24 C2.33333333 24 -0.33333333 24 -3 24 C-4.27875 24.103125 -5.5575 24.20625 -6.875 24.3125 C-10.31462982 24.29978418 -11.01902595 23.98718661 -14.0625 21.9375 C-16 19 -16 19 -16 15.3125 C-15 12 -15 12 -12 10 C-9.08203125 9.8046875 -9.08203125 9.8046875 -5.8125 9.875 C-4.72582031 9.89304687 -3.63914062 9.91109375 -2.51953125 9.9296875 C-1.27236328 9.96449219 -1.27236328 9.96449219 0 10 C-1.29567934 6.79341736 -1.29567934 6.79341736 -4.1875 5.125 C-7.77186305 4.96569498 -10.61670837 5.87223612 -14 7 C-14.33 5.35 -14.66 3.7 -15 2 C-10.25138441 -0.79989127 -5.36654686 -0.68509109 0 0 Z M-10 14 C-10.33 14.99 -10.66 15.98 -11 17 C-9.89958081 18.68681738 -9.89958081 18.68681738 -8 20 C-4.90351124 20.16448881 -4.90351124 20.16448881 -2 19 C-0.54708727 16.53744315 -0.54708727 16.53744315 0 14 C-3.3 14 -6.6 14 -10 14 Z " fill="#FFF7F2" transform="translate(701,900)"/>
<path d="M0 0 C0.92683594 -0.03996094 1.85367188 -0.07992187 2.80859375 -0.12109375 C6.85635568 0.69994165 8.19246091 2.06999842 10.5625 5.4375 C11.15063233 8.73596357 11.03673714 11.91323832 10.875 15.25 C10.85244141 16.13365234 10.82988281 17.01730469 10.80664062 17.92773438 C10.74797428 20.0983891 10.65829979 22.2681669 10.5625 24.4375 C7.89583333 24.4375 5.22916667 24.4375 2.5625 24.4375 C1.44875 24.499375 0.335 24.56125 -0.8125 24.625 C-4.75158331 24.42125431 -6.48984974 24.03836788 -9.4375 21.4375 C-10.46637287 18.21369834 -10.75180743 16.33206729 -9.625 13.125 C-8.4375 11.4375 -8.4375 11.4375 -6.4375 10.4375 C-4.39694995 10.36684383 -2.35415743 10.35328024 -0.3125 10.375 C0.78320312 10.38402344 1.87890625 10.39304687 3.0078125 10.40234375 C3.85085938 10.41394531 4.69390625 10.42554688 5.5625 10.4375 C4.25901493 7.20372892 4.25901493 7.20372892 1.3125 5.5625 C-2.00432019 5.41173545 -4.37051112 6.22496951 -7.4375 7.4375 C-8.0975 6.7775 -8.7575 6.1175 -9.4375 5.4375 C-9.4375 4.4475 -9.4375 3.4575 -9.4375 2.4375 C-6.23046676 0.55855582 -3.70385823 0.08733092 0 0 Z M-3.4375 14.4375 C-3.7675 16.0875 -4.0975 17.7375 -4.4375 19.4375 C-1.15949032 20.46773161 0.17653548 20.60903978 3.375 19.1875 C4.096875 18.61 4.81875 18.0325 5.5625 17.4375 C5.5625 16.4475 5.5625 15.4575 5.5625 14.4375 C2.5925 14.4375 -0.3775 14.4375 -3.4375 14.4375 Z " fill="#FFF7F2" transform="translate(796.4375,899.5625)"/>
<path d="M0 0 C2.79296875 1.38671875 2.79296875 1.38671875 5 4 C5.61296874 7.43605146 5.470724 10.77394044 5.3125 14.25 C5.28994141 15.18585937 5.26738281 16.12171875 5.24414062 17.0859375 C5.18530595 19.39225674 5.10317146 21.69530838 5 24 C2.33333333 24 -0.33333333 24 -3 24 C-4.134375 24.04125 -5.26875 24.0825 -6.4375 24.125 C-9.73657656 24.00924293 -11.33633432 23.84407624 -14 22 C-15.54163175 18.9167365 -15.29747535 16.39121901 -15 13 C-12.7521495 10.68339172 -11.42993683 10.04503528 -8.203125 9.70703125 C-7.22859375 9.74183594 -6.2540625 9.77664063 -5.25 9.8125 C-4.26515625 9.83957031 -3.2803125 9.86664062 -2.265625 9.89453125 C-1.51796875 9.92933594 -0.7703125 9.96414063 0 10 C-1.23491197 7.01726752 -1.23491197 7.01726752 -3.6875 5.125 C-7.04055779 4.94375363 -9.83571466 5.9655221 -13 7 C-13.66 5.68 -14.32 4.36 -15 3 C-10.53455929 -0.57235257 -5.50387251 -1.0921747 0 0 Z M-9 14 C-9.33 15.32 -9.66 16.64 -10 18 C-7.24104365 20.29637779 -7.24104365 20.29637779 -4.4375 19.75 C-1.84999433 19.16191948 -1.84999433 19.16191948 0 17 C0 16.01 0 15.02 0 14 C-2.97 14 -5.94 14 -9 14 Z " fill="#FFF7F2" transform="translate(503,900)"/>
<path d="M0 0 C1.98 0 3.96 0 6 0 C6.42152344 0.99902344 6.84304688 1.99804688 7.27734375 3.02734375 C7.83060217 4.33078308 8.38399451 5.63416557 8.9375 6.9375 C9.21529297 7.59685547 9.49308594 8.25621094 9.77929688 8.93554688 C11.00792883 12.20468496 11.00792883 12.20468496 13 15 C16.465 7.575 16.465 7.575 20 0 C21.65 0 23.3 0 25 0 C22.92513628 6.65293053 20.40195291 13.01348781 17.5625 19.375 C17.18029297 20.26316406 16.79808594 21.15132812 16.40429688 22.06640625 C16.02466797 22.91847656 15.64503906 23.77054688 15.25390625 24.6484375 C14.91689697 25.41333496 14.5798877 26.17823242 14.23266602 26.96630859 C12.77645286 29.36881514 11.40150761 30.5563354 9 32 C2.83783784 32.64864865 2.83783784 32.64864865 0.0625 30.5 C-0.288125 30.005 -0.63875 29.51 -1 29 C-0.01 27.515 -0.01 27.515 1 26 C1.763125 26.226875 2.52625 26.45375 3.3125 26.6875 C4.199375 26.790625 5.08625 26.89375 6 27 C7.8354799 25.66621425 7.8354799 25.66621425 9 24 C7.22914948 18.31181348 4.83765776 12.98874219 2.390625 7.5703125 C0 2.20647321 0 2.20647321 0 0 Z " fill="#FFF7F2" transform="translate(709,900)"/>
<path d="M0 0 C1.65 0 3.3 0 5 0 C7.31 4.95 9.62 9.9 12 15 C15.465 7.575 15.465 7.575 19 0 C20.65 0 22.3 0 24 0 C22.99950238 5.91555066 20.56552772 11.08861358 18.1875 16.5625 C17.74857422 17.60341797 17.30964844 18.64433594 16.85742188 19.71679688 C16.20676758 21.22016602 16.20676758 21.22016602 15.54296875 22.75390625 C15.15133545 23.66470947 14.75970215 24.5755127 14.35620117 25.51391602 C12.88406033 28.21253172 11.32264136 29.9976535 9 32 C5.61082223 32.69701958 2.12942465 32.56471233 -1 31 C-0.67 29.35 -0.34 27.7 0 26 C2.31 26 4.62 26 7 26 C8.41641443 22.33660351 7.84967936 20.13947895 6.34765625 16.6796875 C5.59934697 15.07181589 4.83713159 13.47035695 4.0625 11.875 C3.29852869 10.27053271 2.53919929 8.6638446 1.78515625 7.0546875 C1.44363525 6.34812012 1.10211426 5.64155273 0.75024414 4.91357422 C0 3 0 3 0 0 Z " fill="#FFF7F2" transform="translate(299,900)"/>
<path d="M0 0 C3.12578143 1.6720747 5.39281175 3.7856235 7 7 C7.52137294 11.82911 7.73402673 15.74166846 5.25 20 C1.25815588 23.54830589 -1.47632382 24.46377139 -6.96875 24.3203125 C-10.35429158 23.78643864 -12.44180448 22.19273902 -15 20 C-17.54481052 15.8198645 -17.83428051 11.77439737 -17 7 C-13.03121338 -0.11135744 -7.60452124 -1.07138737 0 0 Z M-11 7 C-12.42041821 9.84083641 -12.31452272 11.85477278 -12 15 C-10.5 17.5 -10.5 17.5 -8 19 C-4.3282913 19.61195145 -2.71186432 19.48706506 0.375 17.375 C2.4753727 14.30522452 2.53293835 12.65443439 2 9 C0.53937111 6.15561742 -0.39850468 5.23743236 -3.375 4.0625 C-6.76785009 3.98171785 -8.31700046 4.98775035 -11 7 Z " fill="#FFF7F2" transform="translate(588,900)"/>
<path d="M0 0 C3.12578143 1.6720747 5.39281175 3.7856235 7 7 C7.52137294 11.82911 7.73402673 15.74166846 5.25 20 C1.25625587 23.54999478 -1.47550991 24.45745032 -6.96875 24.32421875 C-10.31551204 23.79002404 -12.44251471 22.13123774 -15 20 C-17.82792793 15.7581081 -17.78122286 11.98126257 -17 7 C-13.15152913 -0.15329158 -7.53298001 -1.06130806 0 0 Z M-11 7 C-12.42041821 9.84083641 -12.31452272 11.85477278 -12 15 C-10.5 17.5 -10.5 17.5 -8 19 C-4.3282913 19.61195145 -2.71186432 19.48706506 0.375 17.375 C2.4753727 14.30522452 2.53293835 12.65443439 2 9 C0.53937111 6.15561742 -0.39850468 5.23743236 -3.375 4.0625 C-6.76785009 3.98171785 -8.31700046 4.98775035 -11 7 Z " fill="#FFF7F2" transform="translate(460,900)"/>
<path d="M0 0 C2.66666667 0 5.33333333 0 8 0 C8.68835938 -0.05800781 9.37671875 -0.11601563 10.0859375 -0.17578125 C11.21902344 -0.24345703 11.21902344 -0.24345703 12.375 -0.3125 C13.50035156 -0.39951172 13.50035156 -0.39951172 14.6484375 -0.48828125 C18.44435265 0.29990711 19.7531254 1.88349442 22 5 C22.59331313 8.29736712 22.47422077 11.47607613 22.3125 14.8125 C22.28994141 15.69615234 22.26738281 16.57980469 22.24414062 17.49023438 C22.18547428 19.6608891 22.09579979 21.8306669 22 24 C20.35 24 18.7 24 17 24 C16.93941406 22.86820313 16.87882812 21.73640625 16.81640625 20.5703125 C16.73200083 19.08852855 16.64735283 17.6067584 16.5625 16.125 C16.52318359 15.37863281 16.48386719 14.63226562 16.44335938 13.86328125 C16.28426376 9.80013136 16.28426376 9.80013136 15 6 C11.58343976 5.83322718 11.58343976 5.83322718 8 6 C5.06552643 8.93447357 5.53841577 12.18259456 5.375 16.125 C5.33632813 16.87910156 5.29765625 17.63320313 5.2578125 18.41015625 C5.16348969 20.27303184 5.08065338 22.13648255 5 24 C3.35 24 1.7 24 0 24 C0 16.08 0 8.16 0 0 Z " fill="#FFF7F2" transform="translate(415,900)"/>
<path d="M0 0 C1.65 0 3.3 0 5 0 C5.04898438 1.13179687 5.09796875 2.26359375 5.1484375 3.4296875 C5.22346514 4.91148339 5.29901297 6.393253 5.375 7.875 C5.4059375 8.62136719 5.436875 9.36773438 5.46875 10.13671875 C5.55643831 14.53473188 5.55643831 14.53473188 8 18 C11 18.41666667 11 18.41666667 14 18 C16.40119059 14.39821412 16.43771322 11.49133631 16.625 7.3125 C16.66367187 6.61060547 16.70234375 5.90871094 16.7421875 5.18554688 C16.8362334 3.45745345 16.9191968 1.72876325 17 0 C18.65 0 20.3 0 22 0 C22 7.92 22 15.84 22 24 C19.33333333 24 16.66666667 24 14 24 C12.72125 24.0825 11.4425 24.165 10.125 24.25 C6.80386488 24.26223254 6.02320407 24.01481111 3.0625 22.125 C0.25804577 19.23556231 -0.1251596 17.77266334 -0.09765625 13.8671875 C-0.09443359 13.06152344 -0.09121094 12.25585938 -0.08789062 11.42578125 C-0.07951172 10.58402344 -0.07113281 9.74226562 -0.0625 8.875 C-0.05798828 8.02550781 -0.05347656 7.17601562 -0.04882812 6.30078125 C-0.03702874 4.20049091 -0.01909306 2.1002367 0 0 Z " fill="#FFF7F2" transform="translate(631,900)"/>
<path d="M0 0 C1.65 0 3.3 0 5 0 C5.40992188 0.83144531 5.81984375 1.66289063 6.2421875 2.51953125 C6.78101563 3.60621094 7.31984375 4.69289063 7.875 5.8125 C8.40867187 6.89144531 8.94234375 7.97039063 9.4921875 9.08203125 C10.97221139 12.07838265 10.97221139 12.07838265 13 15 C13.42152344 14.00097656 13.84304688 13.00195312 14.27734375 11.97265625 C14.83060217 10.66921692 15.38399451 9.36583443 15.9375 8.0625 C16.21529297 7.40314453 16.49308594 6.74378906 16.77929688 6.06445312 C18.88671875 1.11328125 18.88671875 1.11328125 20 0 C21.66617115 -0.04063832 23.33388095 -0.042721 25 0 C22.49415892 8.40193774 18.78974143 16.11941439 15 24 C13.35 24 11.7 24 10 24 C6.21025857 16.11941439 2.50584108 8.40193774 0 0 Z " fill="#FFF7F2" transform="translate(760,900)"/>
<path d="M0 0 C1.65 0 3.3 0 5 0 C5 10.89 5 21.78 5 33 C3.35 33 1.7 33 0 33 C0 22.11 0 11.22 0 0 Z " fill="#FFF7F2" transform="translate(674,891)"/>
<path d="M0 0 C1.65 0 3.3 0 5 0 C5 10.89 5 21.78 5 33 C3.35 33 1.7 33 0 33 C0 22.11 0 11.22 0 0 Z " fill="#FFF7F2" transform="translate(661,891)"/>
<path d="M0 0 C4.33333333 0 8.66666667 0 13 0 C13 1.65 13 3.3 13 5 C12.030625 5.28875 11.06125 5.5775 10.0625 5.875 C6.89335797 6.64214682 6.89335797 6.64214682 6 9 C5.76827173 11.54615009 5.58105471 14.07396225 5.4375 16.625 C5.39431641 17.33140625 5.35113281 18.0378125 5.30664062 18.765625 C5.20055249 20.51018537 5.09977111 22.25506697 5 24 C3.35 24 1.7 24 0 24 C0 16.08 0 8.16 0 0 Z " fill="#FFF7F2" transform="translate(473,900)"/>
<path d="M0 0 C1.65 0 3.3 0 5 0 C5 10.23 5 20.46 5 31 C3.35 31 1.7 31 0 31 C0 20.77 0 10.54 0 0 Z " fill="#FFF7F2" transform="translate(529,893)"/>
<path d="M0 0 C1.65 0 3.3 0 5 0 C5 7.92 5 15.84 5 24 C3.35 24 1.7 24 0 24 C0 16.08 0 8.16 0 0 Z " fill="#FFF7F2" transform="translate(402,900)"/>
<path d="M0 0 C0.99 0.33 1.98 0.66 3 1 C3.33 1.99 3.66 2.98 4 4 C3.01 4.99 2.02 5.98 1 7 C-0.32 6.34 -1.64 5.68 -3 5 C-2.625 3.0625 -2.625 3.0625 -2 1 C-1.34 0.67 -0.68 0.34 0 0 Z " fill="#FFF7F2" transform="translate(404,890)"/>
</svg>
