<svg xmlns="http://www.w3.org/2000/svg" viewBox="0 0 36.80078125 36.79999923706055" fill="none"> <g clip-path="url(#clip0_575_246)"> <mask id="mask0_575_246" style="mask-type:luminance" maskUnits="userSpaceOnUse" x="0" y="0" width="149" height="148"> <path d="M18.403896645375845 36.800035288217906C28.565860483530408 36.800035288217906 36.80401375105574 28.562130674619933 36.80401375105574 18.399992778716218C36.80401375105574 8.237954344383446 28.565860483530408 0 18.403896645375845 0C8.241858211043073 0 0.003906253737331081 8.237954344383446 0.003906253737331081 18.399992778716218C0.003906253737331081 28.562130674619933 8.241858211043073 36.800035288217906 18.403896645375845 36.800035288217906Z" fill="white"></path> </mask> <g mask="url(#mask0_575_246)"> <path d="M-20.261714463682434 0H80.73370309860641V36.800035288217906H-20.261714463682434V0Z" fill="white"></path> </g> <mask id="mask1_575_246" style="mask-type:luminance" maskUnits="userSpaceOnUse" x="0" y="0" width="149" height="148"> <path d="M18.403896645375845 36.800035288217906C28.565860483530408 36.800035288217906 36.80401375105574 28.562130674619933 36.80401375105574 18.399992778716218C36.80401375105574 8.237954344383446 28.565860483530408 0 18.403896645375845 0C8.241858211043073 0 0.003906253737331081 8.237954344383446 0.003906253737331081 18.399992778716218C0.003906253737331081 28.562130674619933 8.241858211043073 36.800035288217906 18.403896645375845 36.800035288217906Z" fill="white"></path> </mask> <g mask="url(#mask1_575_246)"> <path d="M-20.261714463682434 0H80.73370309860641V4.088890046980574H-20.261714463682434V0ZM-20.261714463682434 8.177780093961148H80.73370309860641V12.266695006334459H-20.261714463682434V8.177780093961148ZM-20.261714463682434 16.355535322529562H80.73370309860641V20.444499965688344H-20.261714463682434V16.355535322529562ZM-20.261714463682434 24.533340281883444H80.73370309860641V28.62230492504223H-20.261714463682434V24.533340281883444ZM-20.261714463682434 32.711170106630064H80.73370309860641V36.800035288217906H-20.261714463682434V32.711170106630064Z" fill="#B22234"></path> </g> <mask id="mask2_575_246" style="mask-type:luminance" maskUnits="userSpaceOnUse" x="0" y="0" width="149" height="148"> <path d="M18.403896645375845 36.800035288217906C28.565860483530408 36.800035288217906 36.80401375105574 28.562130674619933 36.80401375105574 18.399992778716218C36.80401375105574 8.237954344383446 28.565860483530408 0 18.403896645375845 0C8.241858211043073 0 0.003906253737331081 8.237954344383446 0.003906253737331081 18.399992778716218C0.003906253737331081 28.562130674619933 8.241858211043073 36.800035288217906 18.403896645375845 36.800035288217906Z" fill="white"></path> </mask> <g mask="url(#mask2_575_246)"> <path d="M-20.261714463682434 0H20.13639288429054V20.444499965688344H-20.261714463682434V0Z" fill="#3C3B6E"></path> </g> <mask id="mask3_575_246" style="mask-type:luminance" maskUnits="userSpaceOnUse" x="0" y="0" width="149" height="148"> <path d="M18.403896645375845 36.800035288217906C28.565860483530408 36.800035288217906 36.80401375105574 28.562130674619933 36.80401375105574 18.399992778716218C36.80401375105574 8.237954344383446 28.565860483530408 0 18.403896645375845 0C8.241858211043073 0 0.003906253737331081 8.237954344383446 0.003906253737331081 18.399992778716218C0.003906253737331081 28.562130674619933 8.241858211043073 36.800035288217906 18.403896645375845 36.800035288217906Z" fill="white"></path> </mask> <g mask="url(#mask3_575_246)"> <path d="M13.333519816300674 1.6255178597445101L12.965909850084458 2.7572736697635136H11.776125673036317L12.738565564294763 3.4563890519425673L12.371154521220438 4.587615229096284L13.333519816300674 3.8884998469172296L14.295835380595438 4.587615229096284L13.928349741342904 3.4562895903716218L14.890342055532095 2.7572736697635136H13.701080051731418L13.333519816300674 1.6255178597445101ZM9.984449799408784 4.49613544921875L9.616964160156249 5.627411357157939H8.42752809860642L9.38991825907939 6.3265764701224665L9.02213423511402 7.457852378061655L9.984598991765203 6.758637534311656L10.946815094489018 7.457852378061655L10.57930458984375 6.3265764701224665L11.541719615709459 5.627411357157939H10.35198516944679L9.984449799408784 4.49613544921875ZM16.68194333298142 4.49613544921875L16.314457693728883 5.627411357157939H15.12512109375L16.087436658044762 6.326526739336994L15.719627768686655 7.457852378061655L16.68214225612331 6.758637534311656L17.644308628061655 7.457852378061655L17.27682298880912 6.326651066300675L18.239312610853037 5.627411357157939H17.049801953124998L16.68194333298142 4.49613544921875ZM-13.456926760451859 9.003783575274491L-13.457026222022805 9.003708979096285L-13.456951625844594 9.0035846521326L-13.456877029666384 9.003783575274491H-13.456926760451859ZM-6.75938349609375 9.003783575274491H-6.7594332268792225L-6.759333765308277 9.0035846521326V9.003708979096285L-6.75938349609375 9.003783575274491ZM6.635901955764358 7.366347732791385L6.268391451119087 8.497623640730575H5.078657004856419L6.041146626900338 9.196813619087838L5.673586391469595 10.328412777132602L6.635777628800676 9.62927252956081L7.598192654666385 10.328412777132602L7.230334034522803 9.196813619087838L8.192798791173987 8.497623640730575H7.003362729624155L6.635901955764358 7.366347732791385ZM6.635703032622466 9.003783575274491H6.635653301836993L6.635777628800676 9.0035846521326L6.635802494193412 9.003708979096285L6.635703032622466 9.003783575274491ZM13.333519816300674 7.366347732791385L12.965984446262668 8.497623640730575H11.776125673036317L12.738714756651182 9.196863349873311L12.371154521220438 10.328412777132602L13.333470085515202 9.629322260346283L14.295785649809966 10.328412777132602L13.92817568359375 9.196739022909629L14.890292324746621 8.497623640730575H13.70100545555321L13.333519816300674 7.366347732791385ZM13.333519816300674 9.003783575274491L13.333395489336993 9.003708979096285L13.333470085515202 9.0035846521326L13.333594412478885 9.003783575274491H13.333519816300674ZM3.2868568042652027 10.23705732421875L2.9194208957981416 11.368208905194257H1.73003207849451L2.6921014754011825 12.067299421980575L2.324536266891892 13.198649926097971L3.2868568042652027 12.499484813133446L4.249172368559966 13.198649926097971L3.881686729307432 12.067448614336993L4.8442012167440875 11.368208905194257H3.654367308910473L3.2868568042652027 10.23705732421875ZM9.984449799408784 10.23705732421875L9.616964160156249 11.368208905194257H8.42752809860642L9.38994312447213 12.067374018158784L9.02213423511402 13.198649926097971L9.984598991765203 12.499410216955237L10.946815094489018 13.198649926097971L10.57930458984375 12.067374018158784L11.541719615709459 11.368208905194257H10.35198516944679L9.984449799408784 10.23705732421875ZM16.68194333298142 10.23705732421875L16.314457693728883 11.368208905194257H15.12512109375L16.087436658044762 12.067299421980575L15.719627768686655 13.198649926097971L16.68214225612331 12.499410216955237L17.644308628061655 13.198649926097971L17.27677325802365 12.067448614336993L18.239312610853037 11.368208905194257H17.049801953124998L16.68194333298142 10.23705732421875ZM7.003387595016892 14.238470919552364L6.635901955764358 13.107269607791384L6.268391451119087 14.238470919552364H5.078657004856419L6.041072030722129 14.937660897909629L5.673561526076858 16.068787613492397L6.635777628800676 15.369622500527871L7.598192654666385 16.068787613492397L7.230458361486486 14.937636032516892L8.192798791173987 14.238470919552364H7.003387595016892ZM13.70100545555321 14.238470919552364L13.333519816300674 13.107269607791384L12.965984446262668 14.238470919552364H11.776125673036317L12.738689891258446 14.937735494087837L12.371154521220438 16.068787613492397L13.333519816300674 15.369721962098817L14.295835380595438 16.068787613492397L13.928300010557432 14.937561436338683L14.890342055532095 14.238470919552364H13.70100545555321ZM3.654367308910473 17.109056184016048L3.2868568042652027 15.977879737647802L2.919371165012669 17.109056184016048H1.73003207849451L2.6920517446157093 17.808196431587834L2.324536266891892 18.93947233952703L3.2868568042652027 18.2403072265625L4.249172368559966 18.93947233952703L3.881686729307432 17.808345623944255L4.8442012167440875 17.109056184016048H3.654367308910473ZM10.35198516944679 17.109056184016048L9.984449799408784 15.977879737647802L9.616964160156249 17.109056184016048H8.42752809860642L9.38994312447213 17.808271027766047L9.02213423511402 18.93947233952703L9.984598991765203 18.24023263038429L10.946815094489018 18.93947233952703L10.57930458984375 17.808271027766047L11.541719615709459 17.109056184016048H10.35198516944679ZM17.049801953124998 17.109056184016048L16.68194333298142 15.977879737647802L16.314457693728883 17.109056184016048H15.12512109375L16.087436658044762 17.808196431587834L15.719627768686655 18.93947233952703L16.68214225612331 18.24023263038429L17.644308628061655 18.93947233952703L17.27677325802365 17.808345623944255L18.239312610853037 17.109056184016048H17.049801953124998Z" fill="white"></path> </g> </g> <defs> <clipPath id="clip0_575_246"> <rect width="9.150464527027026" height="9.150464527027026" fill="white" transform="scale(4.02165)"></rect> </clipPath> </defs> </svg>